<?xml version="1.0" standalone="no"?>
<!DOCTYPE svg PUBLIC "-//W3C//DTD SVG 20010904//EN"
 "http://www.w3.org/TR/2001/REC-SVG-20010904/DTD/svg10.dtd">
<svg version="1.0" xmlns="http://www.w3.org/2000/svg"
 width="1280.000000pt" height="1280.000000pt" viewBox="0 0 1280.000000 1280.000000"
 preserveAspectRatio="xMidYMid meet">
<g transform="translate(0.000000,1280.000000) scale(0.100000,-0.100000)"
fill="#000000" stroke="none">
<path d="M6344 12169 c-46 -13 -99 -70 -114 -123 -17 -61 0 -123 46 -168 48
-48 84 -56 229 -57 486 -3 1046 -95 1553 -256 79 -25 155 -45 170 -45 34 0
102 31 124 56 25 29 48 88 48 126 0 48 -37 116 -79 143 -20 13 -111 46 -204
74 -488 147 -917 223 -1427 251 -217 12 -303 12 -346 -1z"/>
<path d="M5810 12149 c-560 -58 -1129 -202 -1650 -419 -209 -87 -482 -224
-518 -261 -108 -111 -28 -295 128 -293 48 1 75 11 218 83 553 278 1157 455
1813 531 192 22 221 35 264 119 36 72 -4 190 -77 223 -49 23 -84 26 -178 17z"/>
<path d="M8855 11577 c-124 -50 -159 -190 -72 -282 18 -19 97 -68 177 -111
505 -269 973 -624 1359 -1033 252 -267 253 -268 298 -281 80 -24 161 12 201
90 26 52 28 96 7 146 -31 75 -407 465 -645 670 -328 283 -700 537 -1081 738
-134 70 -191 85 -244 63z"/>
<path d="M3055 11113 c-31 -16 -185 -131 -285 -211 -233 -187 -560 -504 -759
-737 -198 -230 -490 -637 -548 -763 -20 -42 -24 -62 -19 -97 9 -59 43 -106 96
-132 54 -28 101 -29 156 -4 47 21 39 11 177 221 335 510 773 976 1262 1345
157 118 175 142 175 227 0 121 -147 209 -255 151z"/>
<path d="M5340 8065 c0 -1114 -1 -2026 -2 -2027 -2 -2 -301 -5 -666 -8 l-662
-5 1192 -1652 c656 -909 1196 -1651 1200 -1650 4 1 543 745 1198 1652 l1191
1650 -656 6 c-360 3 -658 9 -663 13 -4 4 -7 915 -7 2024 l0 2017 -1062 3
-1063 2 0 -2025z"/>
<path d="M11058 9610 c-47 -14 -85 -48 -108 -96 -36 -74 -26 -109 90 -300 320
-529 549 -1118 675 -1732 37 -184 50 -218 90 -251 118 -92 285 -13 285 136 0
28 -13 115 -29 194 -107 528 -286 1036 -532 1508 -109 208 -260 459 -301 497
-51 48 -108 63 -170 44z"/>
<path d="M1187 8819 c-46 -24 -63 -52 -123 -194 -251 -597 -396 -1246 -434
-1943 -12 -224 -7 -257 49 -313 80 -81 205 -68 271 27 20 30 24 50 27 122 28
730 153 1327 409 1954 64 159 73 202 53 255 -13 34 -55 80 -91 99 -39 20 -116
17 -161 -7z"/>
<path d="M11905 6776 c-22 -14 -50 -42 -62 -63 -20 -36 -21 -56 -26 -378 -10
-630 -87 -1093 -278 -1668 -38 -115 -69 -224 -69 -243 0 -148 179 -225 290
-126 47 42 84 134 170 422 168 562 242 1064 244 1655 l1 290 -28 48 c-50 85
-158 113 -242 63z"/>
<path d="M755 5902 c-45 -28 -83 -78 -91 -118 -11 -59 40 -394 102 -672 60
-271 159 -590 264 -852 131 -329 330 -724 387 -767 67 -52 159 -50 223 3 43
37 60 75 60 135 0 43 -8 67 -44 133 -324 594 -527 1200 -621 1853 -15 97 -33
192 -42 211 -26 55 -76 86 -147 90 -47 2 -68 -1 -91 -16z"/>
<path d="M11295 3918 c-22 -5 -52 -18 -67 -31 -15 -12 -68 -94 -119 -182 -314
-548 -693 -1005 -1192 -1437 -76 -66 -144 -130 -153 -143 -38 -57 -29 -147 19
-202 53 -60 129 -79 201 -49 60 25 277 216 501 440 360 360 624 697 872 1111
133 220 153 264 153 328 0 113 -98 189 -215 165z"/>
<path d="M1850 3159 c-71 -41 -105 -128 -80 -203 40 -122 571 -698 890 -966
148 -125 364 -288 504 -383 175 -117 377 -235 416 -242 158 -27 268 161 165
284 -14 16 -92 70 -173 119 -547 334 -1031 764 -1436 1275 -43 54 -92 107
-110 118 -43 26 -129 25 -176 -2z"/>
<path d="M9120 1703 c-584 -332 -1220 -556 -1864 -658 -111 -18 -142 -31 -180
-75 -74 -89 -45 -220 60 -270 54 -26 81 -25 299 15 586 108 1133 294 1635 557
300 157 390 220 406 284 4 14 4 47 2 74 -9 90 -78 150 -175 150 -42 0 -66 -10
-183 -77z"/>
<path d="M4202 1369 c-106 -53 -130 -187 -49 -275 36 -40 134 -81 391 -168
557 -187 1090 -281 1721 -302 220 -7 263 -1 315 42 43 37 60 75 60 134 0 56
-15 93 -52 127 -48 45 -87 53 -258 53 -604 0 -1270 126 -1878 356 -78 30 -157
54 -175 54 -18 0 -51 -10 -75 -21z"/>
</g>
</svg>
